<?xml version="1.0" encoding="UTF-8"?>
<svg version="1.1" xmlns="http://www.w3.org/2000/svg" width="1373" height="537">
<path d="M0 0 C1.13819053 0.98275482 2.24648113 2.00189239 3.3125 3.0625 C3.79976562 3.5471875 4.28703125 4.031875 4.7890625 4.53125 C11.32875442 11.72108673 12.70770105 20.28754922 12.58203125 29.6328125 C11.75379945 40.17176206 8.209273 49.35068089 2.8671875 58.34472656 C0.38033001 62.79452494 0.11749067 65.70338291 0.93823242 70.70996094 C4.79768219 94.96935948 -2.7011195 119.14055107 -16.6796875 138.875 C-31.19049442 157.58490489 -52.41873357 169.94769419 -75.6875 174.0625 C-80.13564895 174.46871917 -84.53525386 174.54030136 -89 174.5 C-90.17626953 174.49315186 -91.35253906 174.48630371 -92.56445312 174.47924805 C-109.20272067 174.1736332 -130.43602233 169.31397767 -142.6875 157.0625 C-145.73408918 157.04138503 -148.767127 157.07105308 -151.8125 157.125 C-166.12950887 157.22059969 -181.08631089 156.75595905 -193.0625 147.8125 C-200.69928956 139.81205379 -204.12538516 132.13743788 -204.04882812 121.01342773 C-203.60505075 105.17707903 -195.21253876 90.19502328 -185.5 78.125 C-179.68875684 70.84618989 -177.42595922 64.01140084 -175.22949219 55.07910156 C-172.28179392 44.11153954 -166.44875194 34.99964574 -159.6875 26.0625 C-158.97851562 25.11503906 -158.26953125 24.16757813 -157.5390625 23.19140625 C-156.92804688 22.48886719 -156.31703125 21.78632813 -155.6875 21.0625 C-155.0275 21.0625 -154.3675 21.0625 -153.6875 21.0625 C-153.1925 19.5775 -153.1925 19.5775 -152.6875 18.0625 C-150.57880161 16.19429295 -148.48066128 14.46027983 -146.25 12.75 C-145.61328369 12.25870605 -144.97656738 11.76741211 -144.32055664 11.26123047 C-127.57226237 -1.49676212 -109.89381269 -7.15658177 -88.9375 -7.25 C-87.35727051 -7.25833862 -87.35727051 -7.25833862 -85.74511719 -7.2668457 C-79.94308421 -7.21346116 -74.64442889 -6.63297895 -68.98681641 -5.37768555 C-62.97928218 -4.22759166 -57.48323284 -5.05642193 -51.5625 -6.4375 C-34.63636503 -9.90410264 -14.7194285 -10.35002487 0 0 Z M-43.6875 4.0625 C-40.39564323 7.44942844 -37.01058177 10.50234627 -33.3125 13.4375 C-27.8698091 17.84453717 -22.59248224 22.20502663 -18.6875 28.0625 C-17.61232824 39.88938931 -26.77106334 50.139849 -33.91796875 58.83203125 C-61.144401 91.04981912 -105.58684773 117.53743018 -147.6875 123.0625 C-151.00759256 123.30061304 -154.29758574 123.34483115 -157.625 123.3125 C-158.85959961 123.32410156 -158.85959961 123.32410156 -160.11914062 123.3359375 C-160.91384766 123.33335937 -161.70855469 123.33078125 -162.52734375 123.328125 C-163.23238037 123.32586914 -163.93741699 123.32361328 -164.66381836 123.32128906 C-167.067418 123.01391596 -168.64186364 122.35560222 -170.6875 121.0625 C-175.67866027 111.3283587 -177.845949 100.86978647 -178.6875 90.0625 C-179.6775 90.0625 -180.6675 90.0625 -181.6875 90.0625 C-188.63416762 101.02360004 -188.63416762 101.02360004 -190.328125 113.5625 C-188.85925703 119.2946677 -186.17080257 123.43039233 -181.203125 126.6953125 C-164.95608469 135.10724166 -143.65041049 132.20326348 -126.6875 127.0625 C-125.69339111 126.77294434 -125.69339111 126.77294434 -124.67919922 126.47753906 C-99.97061999 119.11393507 -76.85782123 105.94911025 -56.6875 90.0625 C-55.39005859 89.0725 -55.39005859 89.0725 -54.06640625 88.0625 C-47.98838063 83.29400442 -42.48172109 78.0614625 -37 72.625 C-36.27973633 71.91400146 -35.55947266 71.20300293 -34.81738281 70.47045898 C-34.1519043 69.80087158 -33.48642578 69.13128418 -32.80078125 68.44140625 C-32.20048096 67.8388501 -31.60018066 67.23629395 -30.98168945 66.61547852 C-29.47410124 65.14335471 -29.47410124 65.14335471 -29.6875 63.0625 C-29.0275 63.0625 -28.3675 63.0625 -27.6875 63.0625 C-17.57567997 51.81799138 -9.85373814 37.5305084 -8.3125 22.375 C-8.99244243 16.36884184 -10.41293548 11.86636745 -14.9375 7.6875 C-22.98676062 1.54200641 -34.13793423 1.84373472 -43.6875 4.0625 Z " fill="#E2D3C9" transform="translate(265.6875,171.9375)"/>
<path d="M0 0 C9.5450834 7.42722206 16.46705977 17.97742739 18.53515625 29.97265625 C18.81671081 33.10393552 18.86981711 36.20492918 18.84765625 39.34765625 C18.8420166 40.18546631 18.83637695 41.02327637 18.83056641 41.88647461 C18.57278702 55.01663356 13.77493906 64.83434458 4.66015625 74.28515625 C-5.63638032 84.10457379 -16.91856132 88.37156447 -31.15234375 88.1796875 C-44.66655277 87.33504944 -56.45183928 82.11646876 -65.71875 72.13671875 C-74.76782064 60.92153948 -78.49151837 48.29010043 -77.46484375 33.97265625 C-75.19409082 20.11569939 -69.17853315 9.08400347 -58.234375 0.15234375 C-40.13493801 -12.59734815 -18.186853 -12.32519102 0 0 Z M-52.71484375 17.16015625 C-59.76960751 26.18100171 -60.56564366 35.9197265 -59.46484375 46.97265625 C-57.5152392 55.2968105 -52.79172873 62.953762 -45.71484375 67.84765625 C-37.92146995 72.22495918 -29.10588366 72.93866942 -20.46484375 70.97265625 C-11.35919173 67.88038595 -5.98067576 63.44681014 -1.46484375 54.97265625 C2.66477804 45.96257235 2.09691201 35.35009248 -0.46484375 25.97265625 C-3.9146342 18.61163842 -9.65235096 12.53203476 -17.08984375 9.16015625 C-30.06886614 4.59346319 -43.19788586 7.04689775 -52.71484375 17.16015625 Z " fill="#DFD1C6" transform="translate(885.46484375,248.02734375)"/>
<path d="M0 0 C3.13832286 1.75417173 5.94196582 3.80536297 8.7890625 6 C9.7171875 5.13375 9.7171875 5.13375 10.6640625 4.25 C18.39765345 -1.31818548 26.31655485 -3.27661828 35.7890625 -2 C41.61195684 -0.27600107 47.6920839 2.55953341 50.94140625 7.890625 C53.49356821 12.79513553 54.91283524 17.00433666 54.91845703 22.5690918 C54.92160919 23.46649582 54.92476135 24.36389984 54.92800903 25.28849792 C54.92497269 26.72930473 54.92497269 26.72930473 54.921875 28.19921875 C54.92283173 29.19000931 54.92378845 30.18079987 54.92477417 31.20161438 C54.92545389 33.2920437 54.92361412 35.38247514 54.91943359 37.47290039 C54.91406541 40.68575729 54.91939436 43.89847547 54.92578125 47.11132812 C54.92512077 49.14062531 54.92384022 51.16992241 54.921875 53.19921875 C54.92389923 54.16582932 54.92592346 55.13243988 54.92800903 56.12834167 C54.92328079 57.46026299 54.92328079 57.46026299 54.91845703 58.8190918 C54.91766144 59.60422653 54.91686584 60.38936127 54.91604614 61.19828796 C54.7890625 63 54.7890625 63 53.7890625 64 C51.25856848 64.07313567 48.75601413 64.09247527 46.2265625 64.0625 C45.16018555 64.05573242 45.16018555 64.05573242 44.07226562 64.04882812 C42.31116237 64.03700864 40.55010214 64.01907263 38.7890625 64 C37.12004711 60.66196922 37.58813582 56.9038607 37.54296875 53.23046875 C37.51002414 51.43684419 37.4768126 49.64322452 37.44335938 47.84960938 C37.39598751 45.01883378 37.35157051 42.18807712 37.31225586 39.35717773 C37.27245651 36.62722836 37.22092415 33.89769022 37.16796875 31.16796875 C37.1595546 30.32509811 37.15114044 29.48222748 37.14247131 28.61381531 C37.05295304 24.34285899 36.86702604 20.84834151 34.7890625 17 C31.17451203 14.43757221 26.8972534 13.72788235 22.5390625 14.0625 C18.60596432 15.04577455 17.19891038 15.8190008 14.7890625 19 C13.08074892 22.41662716 13.56584691 26.33081284 13.5078125 30.09375 C13.48940308 30.9962146 13.47099365 31.8986792 13.45202637 32.82849121 C13.39317558 35.71892684 13.34039725 38.60942168 13.2890625 41.5 C13.22153773 45.30221239 13.1478701 49.10423052 13.0703125 52.90625 C13.05673706 53.78647827 13.04316162 54.66670654 13.0291748 55.5736084 C12.90186431 61.77439638 12.90186431 61.77439638 11.7890625 64 C6.8390625 64 1.8890625 64 -3.2109375 64 C-4.87995289 60.66196922 -4.41186418 56.9038607 -4.45703125 53.23046875 C-4.48997586 51.43684419 -4.5231874 49.64322452 -4.55664062 47.84960938 C-4.60401249 45.01883378 -4.64842949 42.18807712 -4.68774414 39.35717773 C-4.72754349 36.62722836 -4.77907585 33.89769022 -4.83203125 31.16796875 C-4.8404454 30.32509811 -4.84885956 29.48222748 -4.85752869 28.61381531 C-4.94704696 24.34285899 -5.13297396 20.84834151 -7.2109375 17 C-10.82548797 14.43757221 -15.1027466 13.72788235 -19.4609375 14.0625 C-23.39403568 15.04577455 -24.80108962 15.8190008 -27.2109375 19 C-28.91925108 22.41662716 -28.43415309 26.33081284 -28.4921875 30.09375 C-28.51059692 30.9962146 -28.52900635 31.8986792 -28.54797363 32.82849121 C-28.60682442 35.71892684 -28.65960275 38.60942168 -28.7109375 41.5 C-28.77846227 45.30221239 -28.8521299 49.10423052 -28.9296875 52.90625 C-28.94326294 53.78647827 -28.95683838 54.66670654 -28.9708252 55.5736084 C-29.09813569 61.77439638 -29.09813569 61.77439638 -30.2109375 64 C-32.69017551 64.02685095 -35.1691259 64.04676547 -37.6484375 64.0625 C-38.35548828 64.07087891 -39.06253906 64.07925781 -39.79101562 64.08789062 C-41.59787309 64.09653588 -43.40481353 64.05220011 -45.2109375 64 C-46.97610194 62.23483556 -46.3385624 59.71061723 -46.34033203 57.31860352 C-46.34348419 56.10386856 -46.34663635 54.88913361 -46.34988403 53.6375885 C-46.34809405 52.30136072 -46.34604305 50.96513326 -46.34375 49.62890625 C-46.34442317 48.26749148 -46.3453933 46.90607683 -46.34664917 45.54466248 C-46.34812604 42.68723408 -46.34597226 39.82983689 -46.34130859 36.97241211 C-46.33561669 33.30581199 -46.33888693 29.63928514 -46.34488106 25.97268772 C-46.34849156 23.15975897 -46.34734573 20.34684765 -46.34475327 17.53391838 C-46.34408507 16.18189421 -46.34490868 14.82986848 -46.34723282 13.47784615 C-46.3497667 11.58882807 -46.34522121 9.69980447 -46.34033203 7.81079102 C-46.33953644 6.73459 -46.33874084 5.65838898 -46.33792114 4.54957581 C-46.2109375 2 -46.2109375 2 -45.2109375 0 C-42.12795699 -1.02766017 -39.87963324 -1.16598738 -36.6484375 -1.1875 C-35.67777344 -1.20167969 -34.70710937 -1.21585937 -33.70703125 -1.23046875 C-31.2109375 -1 -31.2109375 -1 -29.2109375 1 C-26.53188052 0.71037222 -24.39253563 0.08206239 -21.9375 -1.02734375 C-15.13148629 -3.45527701 -6.59971559 -2.9207252 0 0 Z " fill="#DECFC6" transform="translate(621.2109375,270)"/>
<path d="M0 0 C3.00390625 -0.328125 3.00390625 -0.328125 6.5625 -0.25 C8.32787109 -0.22679687 8.32787109 -0.22679687 10.12890625 -0.203125 C13 0 13 0 14 1 C14.95244411 6.21316681 15.14839522 11.25905297 15.14526367 16.53393555 C15.14862228 17.35758606 15.1519809 18.18123657 15.15544128 19.02984619 C15.16488336 21.73215267 15.16689046 24.43439684 15.16796875 27.13671875 C15.17118418 29.02285284 15.17454847 30.90898667 15.17805481 32.79512024 C15.18402784 36.73817524 15.1858964 40.68120837 15.18530273 44.62426758 C15.18520079 49.67833201 15.1988941 54.73225697 15.21607494 59.78628826 C15.22718286 63.67672879 15.22922237 67.56713534 15.22869301 71.4575901 C15.22987336 73.32152605 15.23429825 75.18546286 15.24202538 77.04938316 C15.25180813 79.65110533 15.24895489 82.25252109 15.24291992 84.85424805 C15.24853943 85.6236824 15.25415894 86.39311676 15.25994873 87.18586731 C15.23586377 91.26608569 14.87809228 93.24381544 13 97 C8.05 97 3.1 97 -2 97 C-2 95.68 -2 94.36 -2 93 C-2.54269531 93.27714844 -3.08539062 93.55429687 -3.64453125 93.83984375 C-4.71767578 94.38318359 -4.71767578 94.38318359 -5.8125 94.9375 C-6.87404297 95.47697266 -6.87404297 95.47697266 -7.95703125 96.02734375 C-14.98157927 99.37172703 -24.30643334 99.05011905 -31.75 97.0625 C-40.38824177 93.61364974 -46.40841387 86.5529359 -50.16015625 78.26171875 C-53.58717629 69.03267407 -53.12813226 58.5625172 -49.31640625 49.53125 C-44.55498251 40.37575273 -37.87828008 34.29276003 -28 31 C-25.67187144 30.80028309 -23.33585047 30.68722552 -21 30.625 C-19.14375 30.55152344 -19.14375 30.55152344 -17.25 30.4765625 C-11.68815489 30.74206396 -6.87871945 33.51916219 -2 36 C-2.01571045 34.52406372 -2.01571045 34.52406372 -2.03173828 33.01831055 C-2.06794031 29.36746865 -2.09090115 25.71664263 -2.10986328 22.06567383 C-2.11992041 20.48556856 -2.13356785 18.9054819 -2.15087891 17.32543945 C-2.17514022 15.0541525 -2.18648582 12.78311164 -2.1953125 10.51171875 C-2.20563507 9.80536789 -2.21595764 9.09901703 -2.22659302 8.3712616 C-2.22743775 4.67802208 -2.10720523 3.16080784 0 0 Z M-30.8125 51.3125 C-34.86426107 56.29037788 -35.46324783 61.21271492 -35.3125 67.46875 C-34.60682283 73.18473507 -32.40960903 76.87806628 -27.9375 80.4375 C-22.88560876 83.12467619 -18.55639458 83.84265319 -12.90625 82.50390625 C-8.27201955 80.97357269 -5.5570126 79.3272521 -3 75 C-0.38502837 67.9395766 -0.1446704 61.80070128 -3.0234375 54.859375 C-5.15378596 50.80319153 -7.80116036 48.53565175 -11.9375 46.6875 C-19.42758217 45.00605298 -24.82389614 46.38853683 -30.8125 51.3125 Z " fill="#DED0C6" transform="translate(964,237)"/>
<path d="M0 0 C2.19737359 2.12870566 2.79100453 2.92356538 3 5.9375 C1.5234375 8.04296875 1.5234375 8.04296875 -0.625 10.125 C-1.66527344 11.16720703 -1.66527344 11.16720703 -2.7265625 12.23046875 C-5.29579348 14.15959923 -6.792197 14.82671246 -10 14.9375 C-12.10546875 13.79296875 -12.10546875 13.79296875 -14.1875 12.125 C-21.58498507 6.87595944 -29.16005291 6.33944043 -38.0390625 7.34375 C-44.78611428 8.69672081 -50.13681557 11.37060201 -54.4375 16.8125 C-60.43803334 25.83025067 -62.47246577 35.78902419 -60.5390625 46.48828125 C-58.54720838 54.02217654 -55.09127923 60.42583562 -49 65.375 C-40.49915823 69.80252176 -31.40096766 70.07124155 -22 68.9375 C-18.25079436 67.75593216 -15.23557556 66.14267929 -12 63.9375 C-10.96875 63.339375 -9.9375 62.74125 -8.875 62.125 C-8.25625 61.733125 -7.6375 61.34125 -7 60.9375 C-5.70756532 62.0616176 -4.41607925 63.18682592 -3.125 64.3125 C-2.40570313 64.93898438 -1.68640625 65.56546875 -0.9453125 66.2109375 C0.4076598 67.41176834 1.7208345 68.6583345 3 69.9375 C2.87593826 73.21165122 2.29504779 74.61870591 0.05859375 77.03515625 C-11.8812041 85.98555613 -25.1411595 88.13156256 -39.83203125 86.65234375 C-51.3848014 84.98809854 -60.85012203 79.199704 -69 70.9375 C-76.29701317 61.07523448 -79.57850703 50.74889191 -79.4375 38.5625 C-79.43065186 37.64637939 -79.42380371 36.73025879 -79.41674805 35.78637695 C-79.16708854 25.21932776 -76.29291283 16.45144089 -70 7.9375 C-69.58234375 7.34453125 -69.1646875 6.7515625 -68.734375 6.140625 C-51.9179382 -15.7014136 -20.69215647 -14.22585757 0 0 Z " fill="#DFD0C6" transform="translate(430,249.0625)"/>
<path d="M0 0 C1.50974756 0.90939492 2.99236373 1.86608079 4.4375 2.875 C5.09234375 3.30941406 5.7471875 3.74382812 6.421875 4.19140625 C12.33705783 8.62779337 15.14401211 14.99453632 17.4375 21.875 C17.55775295 24.22692393 17.61282335 26.58253531 17.625 28.9375 C17.63917969 30.18660156 17.65335938 31.43570313 17.66796875 32.72265625 C17.4375 35.875 17.4375 35.875 15.4375 37.875 C13.48861694 38.11550903 13.48861694 38.11550903 11.07958984 38.10205078 C10.17880707 38.10189972 9.27802429 38.10174866 8.34994507 38.10159302 C7.37594757 38.09127045 6.40195007 38.08094788 5.3984375 38.0703125 C4.40244537 38.0674826 3.40645325 38.06465271 2.38027954 38.06173706 C-0.80910118 38.0505184 -3.99820378 38.02541081 -7.1875 38 C-9.34635012 37.98997238 -11.50520463 37.98084615 -13.6640625 37.97265625 C-18.96363699 37.95057361 -24.26304863 37.91707958 -29.5625 37.875 C-27.25928827 42.88585646 -25.42133412 45.14190581 -20.5625 47.875 C-13.62181607 50.18856131 -7.08799804 48.82636633 -0.5625 45.875 C0.0975 45.215 0.7575 44.555 1.4375 43.875 C4.94519248 44.18727904 6.79373606 45.77260471 9.25 48.1875 C9.87519531 48.78175781 10.50039062 49.37601562 11.14453125 49.98828125 C12.4375 51.875 12.4375 51.875 12.32421875 53.9140625 C10.16098783 58.69794762 5.3046027 61.80333916 0.5625 63.75 C-8.656948 66.39090535 -20.65940017 66.48383041 -29.35546875 62.26171875 C-38.08732443 56.77533156 -43.98921885 49.83687464 -46.875 39.875 C-48.95509245 29.89055626 -47.24463938 20.78798633 -42.10546875 12.046875 C-33.0303253 -0.72725097 -14.51605535 -6.98921184 0 0 Z M-26.5625 16.875 C-29.01033882 20.05348604 -29.01033882 20.05348604 -29.5625 23.875 C-19.6625 23.875 -9.7625 23.875 0.4375 23.875 C-1.66429189 17.5203508 -1.66429189 17.5203508 -6.5625 13.875 C-13.71005269 11.49248244 -20.45024824 12.41276926 -26.5625 16.875 Z " fill="#DFD1C6" transform="translate(1218.5625,270.125)"/>
<path d="M0 0 C7.64541825 6.14957555 12.9152045 13.58747704 14.875 23.3125 C15.77485353 34.14535216 13.89422056 42.87131547 6.828125 51.2734375 C0.01638305 58.3848961 -7.00616984 62.32517349 -16.93725586 62.66430664 C-28.55767281 62.79112337 -36.64519683 60.53679121 -45.125 52.3125 C-51.33573411 45.019285 -54.82613667 36.23537054 -54.40234375 26.58984375 C-53.24843407 17.11478257 -49.29483128 8.72124301 -41.94921875 2.45703125 C-39.73455589 0.90791474 -37.5113169 -0.42120574 -35.125 -1.6875 C-34.52300781 -2.02652344 -33.92101562 -2.36554688 -33.30078125 -2.71484375 C-22.77138518 -7.67119721 -9.83845598 -5.31276623 0 0 Z M-35.125 18.8125 C-36.9823878 25.31335729 -37.70279347 33.18382601 -34.5 39.375 C-30.80862008 43.94065411 -27.50334314 46.31710171 -21.6875 47.1875 C-17.39983301 47.46087474 -14.09820138 47.11168553 -10.125 45.3125 C-5.05165784 40.76519563 -2.36305245 36.26435043 -1.8125 29.4375 C-1.98151704 23.82824707 -3.89394545 19.73294755 -7.5625 15.5 C-12.37076896 11.39538016 -16.05839563 10.80849055 -22.296875 10.93359375 C-27.96415635 11.69288421 -31.61528752 14.4253594 -35.125 18.8125 Z " fill="#DFD0C6" transform="translate(493.125,272.6875)"/>
<path d="M0 0 C1.14210938 -0.03738281 2.28421875 -0.07476562 3.4609375 -0.11328125 C7.35008319 0.41007292 8.12991836 1.36830366 10.625 4.3125 C11.84179688 6.71923828 11.84179688 6.71923828 12.84375 9.3828125 C13.21886719 10.3625 13.59398437 11.3421875 13.98046875 12.3515625 C14.35816406 13.36992187 14.73585938 14.38828125 15.125 15.4375 C15.88510118 17.44022393 16.64551543 19.44282907 17.40625 21.4453125 C17.77234375 22.41887695 18.1384375 23.39244141 18.515625 24.39550781 C20.16185345 28.72410321 21.88675508 33.02017178 23.625 37.3125 C25.70122511 34.19816233 27.11406611 31.02674985 28.55859375 27.59765625 C29.13073111 26.25840874 29.70300084 24.91921777 30.27539062 23.58007812 C31.17039377 21.47651381 32.06366577 19.37224433 32.9543457 17.2668457 C33.81772128 15.22924117 34.68776296 13.19458349 35.55859375 11.16015625 C35.82119492 10.53399918 36.08379608 9.9078421 36.35435486 9.26271057 C37.77297503 5.95856867 39.15390326 2.95357275 41.625 0.3125 C44.65625 -0.1484375 44.65625 -0.1484375 48.125 -0.0625 C49.84203125 -0.04316406 49.84203125 -0.04316406 51.59375 -0.0234375 C54.625 0.3125 54.625 0.3125 57.625 2.3125 C55.6108123 8.97017431 52.95099976 15.08360049 49.875 21.3125 C45.13824303 31.05823207 40.59378299 40.87961399 36.125 50.75 C35.48452673 52.16214128 34.84398331 53.57425076 34.20336914 54.98632812 C31.76729308 60.35908277 29.333811 65.73297899 26.91552734 71.11376953 C25.38607175 74.51557703 23.84974288 77.9142065 22.3125 81.3125 C21.86261719 82.32111084 21.41273438 83.32972168 20.94921875 84.36889648 C20.53671875 85.27841064 20.12421875 86.1879248 19.69921875 87.125 C19.34432373 87.91519531 18.98942871 88.70539063 18.6237793 89.51953125 C17.625 91.3125 17.625 91.3125 15.625 92.3125 C12.9014805 92.22325148 10.21486689 92.07896668 7.5 91.875 C6.74589844 91.82279297 5.99179687 91.77058594 5.21484375 91.71679688 C3.3512063 91.58704996 1.48805004 91.45042512 -0.375 91.3125 C1.13621607 86.16804667 2.85926276 81.68795864 5.53515625 77.03515625 C12.57236866 65.4049065 12.57236866 65.4049065 12.75366211 52.39331055 C11.61261787 49.39683212 10.30831904 46.53833924 8.83837891 43.68896484 C7.51511321 41.09728107 6.33671966 38.46557014 5.16796875 35.80078125 C3.10167739 31.11439251 0.96181846 26.46724711 -1.20605469 21.82714844 C-2.84630169 18.29863046 -4.44191125 14.75297783 -6 11.1875 C-6.46664062 10.13304687 -6.93328125 9.07859375 -7.4140625 7.9921875 C-8.375 5.3125 -8.375 5.3125 -8.375 1.3125 C-5.56292765 -0.09353618 -3.13490534 0.06692495 0 0 Z " fill="#DFD1C6" transform="translate(995.375,268.6875)"/>
<path d="M0 0 C1.14210938 -0.03738281 2.28421875 -0.07476562 3.4609375 -0.11328125 C7.41974491 0.41944716 8.12777219 1.2443469 10.625 4.3125 C11.82859685 6.92445498 12.87776657 9.44920508 13.859375 12.140625 C14.14226379 12.88963074 14.42515259 13.63863647 14.71661377 14.41033936 C15.61298235 16.79069936 16.49414872 19.17636 17.375 21.5625 C17.98207637 23.18266542 18.59013871 24.80246177 19.19921875 26.421875 C20.68593115 30.38123359 22.15904046 34.34541329 23.625 38.3125 C27.82086145 30.27702948 31.16384608 21.91461924 34.55859375 13.515625 C35.02394531 12.3915625 35.48929688 11.2675 35.96875 10.109375 C36.38318359 9.09198242 36.79761719 8.07458984 37.22460938 7.02636719 C38.70694619 4.15369355 40.12830151 2.35547127 42.625 0.3125 C45.82421875 -0.11328125 45.82421875 -0.11328125 49.3125 0 C50.47136719 0.02449219 51.63023438 0.04898437 52.82421875 0.07421875 C55.625 0.3125 55.625 0.3125 56.625 1.3125 C56.21086231 6.46141193 54.90451076 10.41627409 52.66796875 15.046875 C52.36907242 15.67378235 52.07017609 16.3006897 51.76222229 16.94659424 C51.12059855 18.29037478 50.47484552 19.63219022 49.82531738 20.97216797 C48.0916908 24.55016263 46.38959197 28.14314742 44.68359375 31.734375 C44.33789337 32.4600769 43.99219299 33.18577881 43.63601685 33.93347168 C40.43191813 40.6759392 37.38326278 47.48024246 34.375 54.3125 C33.41149157 56.48699389 32.44795023 58.66147321 31.484375 60.8359375 C30.01803234 64.15084007 28.5572037 67.46785562 27.10742188 70.79003906 C25.6264431 74.17851093 24.12735618 77.55846319 22.625 80.9375 C22.17995117 81.97003906 21.73490234 83.00257813 21.27636719 84.06640625 C20.85516602 85.00613281 20.43396484 85.94585937 20 86.9140625 C19.63648438 87.74244629 19.27296875 88.57083008 18.8984375 89.42431641 C17.625 91.3125 17.625 91.3125 15.69238281 92.0949707 C12.54629918 92.42600052 9.52313098 92.13734425 6.375 91.875 C5.11171875 91.77316406 3.8484375 91.67132813 2.546875 91.56640625 C1.10054687 91.44072266 1.10054687 91.44072266 -0.375 91.3125 C0.22862058 87.36148833 1.46418846 84.37015691 3.34765625 80.85546875 C4.15493164 79.30956055 4.15493164 79.30956055 4.97851562 77.73242188 C6.11385737 75.58500405 7.25704675 73.44171619 8.40820312 71.30273438 C8.94509766 70.26826172 9.48199219 69.23378906 10.03515625 68.16796875 C10.77971069 66.77034302 10.77971069 66.77034302 11.53930664 65.34448242 C14.33420854 57.53924594 12.02353624 51.78074844 8.79296875 44.58984375 C8.40055496 43.68553116 8.00814117 42.78121857 7.60383606 41.84950256 C6.35361968 38.97684598 5.08353161 36.11349845 3.8125 33.25 C2.96936246 31.32285162 2.12755229 29.39512193 1.28710938 27.46679688 C-0.26109438 23.91942109 -1.81688183 20.37560225 -3.38208008 16.83569336 C-3.72067047 16.06425995 -4.05926086 15.29282654 -4.40811157 14.49801636 C-5.02909661 13.09436633 -5.66040179 11.69521169 -6.30453491 10.30203247 C-7.81665747 6.97140525 -8.375 5.06178546 -8.375 1.3125 C-5.56292765 -0.09353618 -3.13490534 0.06692495 0 0 Z " fill="#DFD1C7" transform="translate(1248.375,268.6875)"/>
<path d="M0 0 C2.18090813 1.811489 3.42340897 3.10110652 4.875 5.5625 C4.13542771 9.89428055 0.80708203 12.49162917 -2.5625 15.125 C-3.5525 15.455 -4.5425 15.785 -5.5625 16.125 C-7.2699998 14.84437515 -8.93623596 13.50732443 -10.5625 12.125 C-13.84769475 11.02993508 -16.29913415 11.02539392 -19.75 11.0625 C-20.83667969 11.07152344 -21.92335938 11.08054687 -23.04296875 11.08984375 C-23.87441406 11.10144531 -24.70585938 11.11304688 -25.5625 11.125 C-26.1159764 13.20053648 -26.5625 14.96865964 -26.5625 17.125 C-25.99144531 17.28355469 -25.42039062 17.44210937 -24.83203125 17.60546875 C-0.72192237 24.54335382 -0.72192237 24.54335382 4.3125 33.4375 C6.22217159 39.6969791 6.11079004 45.14769977 3.6171875 51.16796875 C0.44216693 56.43513864 -4.70689643 60.36166483 -10.5625 62.125 C-22.21656745 63.1497953 -33.22090383 62.71593763 -42.6875 55.0625 C-44.98467287 52.99064791 -45.54616495 52.17400516 -46.5625 49.125 C-45.35290384 47.75332395 -44.11898812 46.40306391 -42.875 45.0625 C-42.19050781 44.30839844 -41.50601563 43.55429687 -40.80078125 42.77734375 C-38.5625 41.125 -38.5625 41.125 -35.98046875 41.25 C-33.5625 42.125 -33.5625 42.125 -30.5625 44.1875 C-25.44092545 47.32176735 -19.34965922 46.61872967 -13.5625 46.125 C-12.9025 45.795 -12.2425 45.465 -11.5625 45.125 C-11.5625 43.145 -11.5625 41.165 -11.5625 39.125 C-12.13355469 38.96644531 -12.70460938 38.80789063 -13.29296875 38.64453125 C-37.40307763 31.70664618 -37.40307763 31.70664618 -42.4375 22.8125 C-44.17456194 17.11879698 -44.20172732 13.10996904 -42.375 7.4375 C-38.46691918 0.2951454 -32.70330193 -3.33275942 -25.0625 -5.625 C-15.78722547 -6.55252745 -7.80153351 -5.41501789 0 0 Z " fill="#DFD0C7" transform="translate(559.5625,272.875)"/>
<path d="M0 0 C1.98338434 1.90727252 3.41586445 3.72940571 5 6 C4.06409496 7.1055189 3.12620142 8.20935453 2.1875 9.3125 C1.66542969 9.92738281 1.14335938 10.54226563 0.60546875 11.17578125 C-0.87172469 12.85424679 -2.40039131 14.43882034 -4 16 C-6.21025497 14.93580316 -8.18535011 13.86760706 -10.1875 12.4375 C-13.75931145 10.61190748 -16.3247437 10.70069375 -20.3125 10.8125 C-21.56675781 10.83957031 -22.82101562 10.86664063 -24.11328125 10.89453125 C-25.54220703 10.94673828 -25.54220703 10.94673828 -27 11 C-26.6767094 13.45077139 -26.6767094 13.45077139 -26 16 C-22.34836732 18.46731938 -18.29042676 19.55322741 -14.125 20.875 C-6.06679498 23.51441207 -0.17992452 26.30893888 4 34 C5.87904976 39.63714929 5.90143313 45.73224411 3.5625 51.25 C0.69961095 56.30879679 -4.40192522 59.73684609 -9.8359375 61.64453125 C-20.43891636 63.38617579 -31.10511014 62.4297541 -40.4375 57 C-41.283125 56.34 -42.12875 55.68 -43 55 C-43.639375 54.525625 -44.27875 54.05125 -44.9375 53.5625 C-46 52 -46 52 -46.0625 49.6875 C-44.56103534 45.88967763 -42.35930476 43.32693306 -39 41 C-36.22148592 40.85376242 -34.70084107 41.58803019 -32.33203125 42.98046875 C-26.2923731 46.42992299 -20.88364707 46.6460038 -14 46 C-13.34 45.67 -12.68 45.34 -12 45 C-12 43.35 -12 41.7 -12 40 C-16.94351086 37.6530807 -21.80731692 35.72999974 -27.0625 34.1875 C-33.40139984 32.13929865 -38.73222137 28.88652971 -42.16015625 23.01171875 C-44.65754189 17.02960895 -44.26975648 11.95262677 -42.00390625 6.0390625 C-39.09798388 0.13676104 -33.86614147 -2.64651809 -28 -5 C-18.51567981 -7.80218551 -8.01115552 -5.53604531 0 0 Z " fill="#DFD1C7" transform="translate(1103,273)"/>
<path d="M0 0 C2.6875 2 2.6875 2 4 4 C4.09360543 7.6506116 3.07492432 8.91292579 0.6875 11.6875 C-1.54233714 13.60619708 -3.30407149 14.90165875 -6 16 C-6.9075 15.175 -7.815 14.35 -8.75 13.5 C-13.70508042 9.89815509 -19.1183365 10.3752406 -25 11 C-25.66 11.33 -26.32 11.66 -27 12 C-26.87822312 13.91466367 -26.87822312 13.91466367 -26 16 C-22.1498221 18.74397007 -18.19103275 19.97386054 -13.6875 21.3125 C-7.00718391 23.44329048 -0.65529439 25.62603904 3.140625 31.87890625 C5.40214643 37.13180376 6.15876833 42.6420638 4.2734375 48.10546875 C1.34363041 54.45338412 -2.44703145 58.67478453 -9.0222168 61.37817383 C-12.41977048 62.44638383 -15.71174702 62.48817287 -19.25 62.4375 C-19.99362793 62.42992676 -20.73725586 62.42235352 -21.50341797 62.41455078 C-31.57498374 62.11569774 -38.80414216 59.03594989 -46 52 C-45.7322469 47.44819724 -43.83945441 45.0863941 -40.6015625 42.109375 C-39 41 -39 41 -36.625 40.875 C-34 42 -34 42 -32.33203125 42.98046875 C-26.2923731 46.42992299 -20.88364707 46.6460038 -14 46 C-13.34 45.67 -12.68 45.34 -12 45 C-12 43.35 -12 41.7 -12 40 C-16.97417768 37.63852171 -21.9317107 35.65350675 -27.1875 34 C-34.00962294 31.75485408 -38.91729479 29.40775796 -42.24609375 22.84765625 C-44.6729446 16.89998552 -44.43857101 10.87332421 -42 5 C-37.77948102 -0.89280008 -32.63590997 -3.84686609 -25.67578125 -5.578125 C-16.34473264 -7.04929763 -7.85345605 -5.10023295 0 0 Z " fill="#E0D1C6" transform="translate(1160,273)"/>
<path d="M0 0 C3.66201389 1.97784711 6.4149672 4.38334987 9.38671875 7.2890625 C8.57846047 11.55739277 6.55781487 13.3499978 3.38671875 16.2890625 C2.72671875 16.9490625 2.06671875 17.6090625 1.38671875 18.2890625 C-1.66116586 18.03507212 -3.55625582 17.3238341 -6.17578125 15.7265625 C-11.29533102 13.58565987 -16.14056618 13.60591151 -21.61328125 14.2890625 C-25.62558653 16.26001948 -28.32568341 18.43626614 -30.61328125 22.2890625 C-32.68649415 29.23870575 -32.20313998 35.19070486 -28.78125 41.5625 C-26.28368035 45.25455948 -24.33071338 46.69568164 -19.92578125 47.6015625 C-13.79648484 48.67374263 -9.25609741 47.9107906 -3.86328125 44.6015625 C-1.61328125 43.2890625 -1.61328125 43.2890625 0.29296875 43.453125 C3.03938391 44.5496415 4.26373287 46.08236807 6.13671875 48.3515625 C7.05710937 49.45177734 7.05710937 49.45177734 7.99609375 50.57421875 C8.455 51.14011719 8.91390625 51.70601563 9.38671875 52.2890625 C7.1662976 57.13081418 4.08044575 60.02024156 -0.703125 62.2734375 C-10.41888878 65.70062872 -21.99543105 66.06118075 -31.40625 61.61328125 C-38.92186516 57.10391216 -45.84905855 50.38234926 -48.75390625 41.99609375 C-50.99758271 32.3176894 -50.87322924 21.92723061 -45.61328125 13.2890625 C-40.99856536 6.79929275 -35.86706406 2.5317769 -28.61328125 -0.7109375 C-27.84628906 -1.07574219 -27.07929687 -1.44054687 -26.2890625 -1.81640625 C-17.986847 -4.59189143 -7.9389612 -3.29900032 0 0 Z " fill="#E0D1C7" transform="translate(765.61328125,270.7109375)"/>
<path d="M0 0 C3.00390625 -0.328125 3.00390625 -0.328125 6.5625 -0.25 C8.32787109 -0.22679687 8.32787109 -0.22679687 10.12890625 -0.203125 C13 0 13 0 14 1 C15.02930805 8.06368316 15.14615444 15.01965786 15.1328125 22.1484375 C15.13424759 23.84995468 15.13424759 23.84995468 15.13571167 25.58584595 C15.13638865 27.96755021 15.13456821 30.34925637 15.13037109 32.73095703 C15.12498602 36.38448174 15.13034775 40.03788518 15.13671875 43.69140625 C15.13605847 46.01041694 15.13477834 48.32942755 15.1328125 50.6484375 C15.13483673 51.74215668 15.13686096 52.83587585 15.13894653 53.96273804 C15.13579437 54.97454132 15.13264221 55.9863446 15.12939453 57.02880859 C15.12859894 57.91877533 15.12780334 58.80874207 15.12698364 59.72567749 C15 62 15 62 14 65 C11.52076199 65.02685095 9.0418116 65.04676547 6.5625 65.0625 C5.85544922 65.07087891 5.14839844 65.07925781 4.41992188 65.08789062 C2.61306441 65.09653588 0.80612397 65.05220011 -1 65 C-2.76280926 63.23719074 -2.13676713 60.72484012 -2.14526367 58.33447266 C-2.15164352 57.12296539 -2.15802338 55.91145813 -2.16459656 54.66323853 C-2.16626579 52.68364639 -2.16626579 52.68364639 -2.16796875 50.6640625 C-2.17118006 49.30504317 -2.17454404 47.9460242 -2.17805481 46.58700562 C-2.18405285 43.73377684 -2.18589407 40.88057839 -2.18530273 38.02734375 C-2.18520119 34.36975536 -2.1988424 30.71236143 -2.21607494 27.05481911 C-2.22719103 24.24613552 -2.22922205 21.43749896 -2.22869301 18.62879562 C-2.23044904 16.62406733 -2.24129448 14.61935371 -2.25224304 12.61465454 C-2.24916641 11.39684296 -2.24608978 10.17903137 -2.24291992 8.92431641 C-2.24434494 7.850336 -2.24576996 6.77635559 -2.24723816 5.66983032 C-2 3 -2 3 0 0 Z " fill="#DFD0C7" transform="translate(691,269)"/>
<path d="M0 0 C2.875 1.4375 2.875 1.4375 5 4 C6.3222751 8.37493489 6.52948402 11.78975081 4.6875 16 C2.81704402 18.21683672 1.86518394 18.88101596 -0.98828125 19.2734375 C-5.20775776 19.45781799 -7.41131504 19.37243334 -11.0625 17.0625 C-13.31003311 13.50994766 -13.7961723 11.3081864 -13.546875 7.16015625 C-13 5 -13 5 -10.4375 1.9375 C-6.45664064 -0.30625709 -4.49411434 -0.73540053 0 0 Z " fill="#D9CCC3" transform="translate(701,240)"/>
<path d="M0 0 C0.66 0 1.32 0 2 0 C1.3266078 7.72078989 0.79178489 13.02202088 -4.875 18.51171875 C-5.24625 19.00285156 -5.6175 19.49398437 -6 20 C-5.36682634 23.23449208 -5.36682634 23.23449208 -4 26 C-5.33333333 28 -6.66666667 30 -8 32 C-8.309375 32.94875 -8.61875 33.8975 -8.9375 34.875 C-9.9688521 37.90838852 -11.26567982 40.31968699 -13 43 C-13.66 42.01 -14.32 41.02 -15 40 C-15 40.66 -15 41.32 -15 42 C-18 43 -18 43 -20 43 C-20.99 45.64 -21.98 48.28 -23 51 C-23.66 51 -24.32 51 -25 51 C-22.45707928 40.71678552 -18.04630134 32.50291707 -11.49291992 24.23291016 C-5.29558023 16.39809622 -1.7941778 9.89891197 0 0 Z " fill="#DFD1C7" transform="translate(90,228)"/>
<path d="M0 0 C7.7532803 0.19742149 12.91337738 2.41264802 18.7265625 7.515625 C20 9 20 9 20 11.375 C18.39722507 15.58228418 15.56327396 18.1127364 11.6875 20.3125 C11.130625 20.539375 10.57375 20.76625 10 21 C8.4375 19.4375 8.4375 19.4375 7 17 C7.25629051 12.38677078 8.41792169 8.32434738 10 4 C6.7 3.01 3.4 2.02 0 1 C0 0.67 0 0.34 0 0 Z " fill="#E7D9CE" transform="translate(1144,268)"/>
<path d="M0 0 C1.32 0.66 2.64 1.32 4 2 C4 2.66 4 3.32 4 4 C4.66 4 5.32 4 6 4 C10.13235213 11.34640379 8.75710531 18.19287113 6.64355469 25.98681641 C3.70112745 35.19138963 -2.26880045 43.32988717 -8 51 C-8.763125 52.03125 -9.52625 53.0625 -10.3125 54.125 C-11.1478125 55.053125 -11.1478125 55.053125 -12 56 C-12.66 56 -13.32 56 -14 56 C-14.99 58.475 -14.99 58.475 -16 61 C-16.66 61 -17.32 61 -18 61 C-18.33 61.99 -18.66 62.98 -19 64 C-19.66 64 -20.32 64 -21 64 C-21.66 65.32 -22.32 66.64 -23 68 C-23.66 67.34 -24.32 66.68 -25 66 C-24.36191406 65.37351562 -23.72382813 64.74703125 -23.06640625 64.1015625 C-22.24011719 63.28429687 -21.41382813 62.46703125 -20.5625 61.625 C-19.73878906 60.81289062 -18.91507813 60.00078125 -18.06640625 59.1640625 C-15.96565328 57.17651485 -15.96565328 57.17651485 -15 55 C-14.34 55 -13.68 55 -13 55 C-12.72542969 54.40960938 -12.45085937 53.81921875 -12.16796875 53.2109375 C-11.04791832 51.09070826 -9.83439164 49.46794823 -8.3125 47.625 C-0.79196896 37.726654 6.43917935 23.71275089 5 11 C3.81621213 6.9250379 2.35852257 3.53778386 0 0 Z " fill="#BDABA8" transform="translate(251,180)"/>
<path d="M0 0 C0.66 0.33 1.32 0.66 2 1 C1.35454137 5.73336326 0.58386263 9.16271934 -2.5625 12.8125 C-6.90690865 19.42355664 -5.71774293 31.04031704 -4.375 38.5 C-2.88834649 44.39274976 0.16064454 49.66849288 3 55 C3.671078 56.33111853 4.33969003 57.66350722 5 59 C0.83294609 57.51176646 -0.25793246 55.20792626 -2.125 51.3125 C-2.62257813 50.29800781 -3.12015625 49.28351563 -3.6328125 48.23828125 C-6.55583381 41.3148965 -7.3877033 35.24192596 -7.375 27.8125 C-7.37411377 26.88501953 -7.37322754 25.95753906 -7.37231445 25.00195312 C-7.20941607 15.53565544 -5.00814785 8.03599654 0 0 Z " fill="#BCB1AB" transform="translate(358,260)"/>
<path d="M0 0 C0.495 0.99 0.495 0.99 1 2 C-0.89692143 1.54619105 -2.79249595 1.08675008 -4.6875 0.625 C-5.74324219 0.36976563 -6.79898438 0.11453125 -7.88671875 -0.1484375 C-10.70406766 -0.91905489 -13.31668325 -1.85498543 -16 -3 C-16 -0.69 -16 1.62 -16 4 C-18.31 3.67 -20.62 3.34 -23 3 C-22.01 1.02 -21.02 -0.96 -20 -3 C-22.52090778 -3.0272367 -25.04151457 -3.04695207 -27.5625 -3.0625 C-28.26697266 -3.07087891 -28.97144531 -3.07925781 -29.69726562 -3.08789062 C-38.2686349 -3.21494353 -38.2686349 -3.21494353 -46 0 C-49.6875 -0.375 -49.6875 -0.375 -53 -1 C-38.05397563 -9.04785928 -15.01905908 -6.85517219 0 0 Z " fill="#D7C9C1" transform="translate(261,169)"/>
<path d="M0 0 C2.01822917 0.06510417 4.03645833 0.13020833 6.0546875 0.1953125 C5.7246875 0.8553125 5.3946875 1.5153125 5.0546875 2.1953125 C4.0646875 2.5253125 3.0746875 2.8553125 2.0546875 3.1953125 C2.7146875 3.8553125 3.3746875 4.5153125 4.0546875 5.1953125 C-7.0169577 8.60197256 -16.95585139 7.468769 -27.9453125 4.1953125 C-25.10039338 3.35420598 -23.73746018 3.22728978 -20.6953125 3.6953125 C-16.38606971 4.2698782 -13.20551727 4.00328237 -8.9453125 3.1953125 C-8.6153125 2.5353125 -8.2853125 1.8753125 -7.9453125 1.1953125 C-7.2853125 1.5253125 -6.6253125 1.8553125 -5.9453125 2.1953125 C-5.2853125 2.1953125 -4.6253125 2.1953125 -3.9453125 2.1953125 C-1.9453125 0.1953125 -1.9453125 0.1953125 0 0 Z " fill="#D6C5BE" transform="translate(866.9453125,328.8046875)"/>
<path d="M0 0 C0.66 0 1.32 0 2 0 C2 0.66 2 1.32 2 2 C2.99 2.33 3.98 2.66 5 3 C5 3.99 5 4.98 5 6 C5.99 4.68 6.98 3.36 8 2 C7.31802228 8.26769995 3.71651785 10.1818665 -1 14 C-3.97 12.35 -6.94 10.7 -10 9 C-5.99998285 7.99999571 -3.94476647 8.19311595 0 9 C-0.99 8.01 -1.98 7.02 -3 6 C-2.505 5.195625 -2.01 4.39125 -1.5 3.5625 C0.08419653 1.35103815 0.08419653 1.35103815 0 0 Z " fill="#DBCDC4" transform="translate(556,275)"/>
<path d="M0 0 C-1.49310547 3.28784841 -3.40914381 5.90734784 -5.625 8.75 C-10.74822976 15.66542186 -14.33839274 23.2385612 -18 31 C-18.66 30.67 -19.32 30.34 -20 30 C-8.53073463 0 -8.53073463 0 0 0 Z " fill="#C5B3B0" transform="translate(111,195)"/>
<path d="M0 0 C5.59282842 1.36410449 8.91193811 4.15383526 13 8 C12.19141754 12.26095702 10.20894619 14.10412173 7 17 C6.34 17.33 5.68 17.66 5 18 C5 17.34 5 16.68 5 16 C4.01 15.67 3.02 15.34 2 15 C2.99 14.34 3.98 13.68 5 13 C6.07136051 10.69855891 7.07989717 8.3659787 8 6 C7.4225 5.65066406 6.845 5.30132812 6.25 4.94140625 C5.13625 4.25884766 5.13625 4.25884766 4 3.5625 C3.2575 3.11003906 2.515 2.65757812 1.75 2.19140625 C1.1725 1.79824219 0.595 1.40507812 0 1 C0 0.67 0 0.34 0 0 Z " fill="#D8C9C2" transform="translate(762,270)"/>
<path d="M0 0 C0.66 0 1.32 0 2 0 C2.03738281 0.82242187 2.07476562 1.64484375 2.11328125 2.4921875 C2.54251314 9.78071325 3.62428374 16.11708372 6 23 C6.59435773 24.80891484 7.17788477 26.62142781 7.75 28.4375 C8.01296875 29.24058594 8.2759375 30.04367187 8.546875 30.87109375 C9 33 9 33 8 36 C4.14123251 26.33835315 1.04723015 17.613992 0.24609375 7.19921875 C0.05802149 4.82612013 0.05802149 4.82612013 -1 2 C-0.67 1.34 -0.34 0.68 0 0 Z " fill="#BAA9A6" transform="translate(86,257)"/>
<path d="M0 0 C3.6536958 7.30739159 2.52576465 15.09373235 0 22.6953125 C-1.53605446 26.23543802 -3.58541527 28.99808385 -6 32 C-6.5534764 29.92446352 -7 28.15634036 -7 26 C-6.360625 25.79375 -5.72125 25.5875 -5.0625 25.375 C-2.65074923 24.10461791 -2.65074923 24.10461791 -2.25 20.875 C-2.1675 19.92625 -2.085 18.9775 -2 18 C-1.34 18 -0.68 18 0 18 C0 12.06 0 6.12 0 0 Z " fill="#CEC1B9" transform="translate(506,292)"/>
<path d="M0 0 C4.7231122 3.9845892 6.12130012 10.39562631 8.25 16 C8.72179688 17.20140625 9.19359375 18.4028125 9.6796875 19.640625 C10.12054687 20.79046875 10.56140625 21.9403125 11.015625 23.125 C11.62325684 24.70667969 11.62325684 24.70667969 12.24316406 26.3203125 C13 29 13 29 12 32 C11.34 31.67 10.68 31.34 10 31 C9.62615407 29.34195051 9.29920084 27.67313112 9 26 C8.43538105 24.42277806 7.82946083 22.85985578 7.1875 21.3125 C6.83429688 20.44753906 6.48109375 19.58257812 6.1171875 18.69140625 C5.37608263 16.90601725 4.63132459 15.12214001 3.8828125 13.33984375 C2.04333975 8.88885677 0.5091921 4.83732494 0 0 Z " fill="#C4B5B0" transform="translate(1256,270)"/>
<path d="M0 0 C4.03384128 2.07143201 5.92856799 3.96615872 8 8 C6.02 9.65 4.04 11.3 2 13 C1.34 11.02 0.68 9.04 0 7 C0.99 6.01 1.98 5.02 3 4 C2 5 2 5 0 6 C-0.33 5.67 -0.66 5.34 -1 5 C-1.99 5 -2.98 5 -4 5 C-3.67 4.01 -3.34 3.02 -3 2 C-2.01 2.33 -1.02 2.66 0 3 C0 2.01 0 1.02 0 0 Z " fill="#D7CAC5" transform="translate(1100,272)"/>
<path d="M0 0 C0.66 0 1.32 0 2 0 C1.83757812 0.825 1.67515625 1.65 1.5078125 2.5 C0.94856425 6.35451104 0.85309799 10.11604359 0.875 14 C0.87113281 14.68578125 0.86726563 15.3715625 0.86328125 16.078125 C0.87106397 20.15626809 1.21245494 23.99977115 2 28 C1.34 28 0.68 28 0 28 C-1.79362381 23.38070694 -2.2702455 19.50746412 -2.25 14.5625 C-2.25515625 13.30566406 -2.2603125 12.04882812 -2.265625 10.75390625 C-1.98730667 6.82061335 -1.21274662 3.72967712 0 0 Z " fill="#B6A5A0" transform="translate(64,280)"/>
<path d="M0 0 C0.66 0 1.32 0 2 0 C1.47215441 10.7101573 -1.79343107 16.25752184 -9 24 C-9.33 24.66 -9.66 25.32 -10 26 C-10.66 26 -11.32 26 -12 26 C-10.68449047 23.13093636 -9.19313245 20.9931724 -7.125 18.625 C-2.87508971 13.14594899 -1.58235865 6.62729034 0 0 Z " fill="#B7A8A6" transform="translate(90,228)"/>
<path d="M0 0 C-3.69564224 3.06012993 -7.51009715 5.74394338 -11.5625 8.3125 C-12.40844727 8.8703418 -12.40844727 8.8703418 -13.27148438 9.43945312 C-17.44709989 12.0620327 -17.44709989 12.0620327 -20.40234375 11.73046875 C-20.92957031 11.48941406 -21.45679688 11.24835938 -22 11 C-19.32550298 9.29402488 -16.64947553 7.59071197 -13.96875 5.89453125 C-12.16524216 4.74360849 -10.37077061 3.5781303 -8.59375 2.38671875 C-7.55734375 1.70029297 -7.55734375 1.70029297 -6.5 1 C-5.58734375 0.38125 -5.58734375 0.38125 -4.65625 -0.25 C-3 -1 -3 -1 0 0 Z " fill="#EDDCD5" transform="translate(198,261)"/>
<path d="M0 0 C6.49142565 0.42335385 11.33492989 2.91099799 17 6 C15 7 15 7 13.0546875 6.44140625 C11.97574219 6.00634766 11.97574219 6.00634766 10.875 5.5625 C10.15054688 5.27503906 9.42609375 4.98757812 8.6796875 4.69140625 C8.12539063 4.46324219 7.57109375 4.23507813 7 4 C6.608125 4.639375 6.21625 5.27875 5.8125 5.9375 C3.61527704 8.43778819 2.24208567 8.64950425 -1 9 C-0.67 8.401875 -0.34 7.80375 0 7.1875 C1.20787988 4.94613529 1.20787988 4.94613529 1 2 C0.67 1.34 0.34 0.68 0 0 Z " fill="#D6C8BF" transform="translate(865,240)"/>
<path d="M0 0 C-0.7734375 1.175625 -0.7734375 1.175625 -1.5625 2.375 C-2.036875 3.24125 -2.51125 4.1075 -3 5 C-2.67 5.66 -2.34 6.32 -2 7 C-4.97 6.67 -7.94 6.34 -11 6 C-10.67 4.02 -10.34 2.04 -10 0 C-6.33694766 -0.74926071 -3.57644848 -1.2380014 0 0 Z " fill="#E2D2C7" transform="translate(242,166)"/>
<path d="M0 0 C4.48256467 4.15610338 5.87897479 8.65261512 6.1875 14.63671875 C6.1875 18.09629523 6.13109107 21.54308001 6 25 C5.34 25.33 4.68 25.66 4 26 C3.96261719 24.96101563 3.92523437 23.92203125 3.88671875 22.8515625 C3.53207428 14.83986525 2.89460661 7.57331038 0 0 Z " fill="#C2B1AD" transform="translate(1230,281)"/>
<path d="M0 0 C2.73083902 -0.13548815 5.45491807 -0.23429855 8.1875 -0.3125 C8.95642578 -0.35439453 9.72535156 -0.39628906 10.51757812 -0.43945312 C14.96628173 -0.53491887 16.47554876 -0.43312555 20.05078125 2.51953125 C20.69402344 3.33808594 21.33726562 4.15664063 22 5 C19 5 19 5 16.76953125 4.0078125 C13.2828325 2.7390279 10.38729303 2.80584499 6.6875 2.875 C5.43324219 2.89304687 4.17898438 2.91109375 2.88671875 2.9296875 C1.45779297 2.96449219 1.45779297 2.96449219 0 3 C0 2.01 0 1.02 0 0 Z " fill="#D1C0BD" transform="translate(742,282)"/>
<path d="M0 0 C0.93423645 3.01031744 1.04449911 3.86650268 0 7 C-0.99 7 -1.98 7 -3 7 C-3.2475 7.78375 -3.495 8.5675 -3.75 9.375 C-5.33931493 13.98401329 -7.16207173 18.48547716 -9 23 C-9.66 23 -10.32 23 -11 23 C-8.98899218 14.86776662 -6.04348285 6.04348285 0 0 Z " fill="#B3A8A3" transform="translate(76,256)"/>
<path d="M0 0 C1.59899115 4.79697344 -1.08478038 8.23222168 -3.1875 12.625 C-3.58775391 13.50929688 -3.98800781 14.39359375 -4.40039062 15.3046875 C-4.9969043 16.56539063 -4.9969043 16.56539063 -5.60546875 17.8515625 C-5.96793701 18.62322754 -6.33040527 19.39489258 -6.70385742 20.18994141 C-8 22 -8 22 -10.1496582 22.75927734 C-10.760271 22.83871582 -11.37088379 22.9181543 -12 23 C-11.34 22.67 -10.68 22.34 -10 22 C-9.28717888 20.01598122 -8.6304023 18.01172498 -8 16 C-7.02501435 13.57313355 -6.02407043 11.15656551 -5 8.75 C-4.73960938 8.12609375 -4.47921875 7.5021875 -4.2109375 6.859375 C-3.04497227 4.12701203 -2.12091826 2.12091826 0 0 Z " fill="#B9ACA8" transform="translate(1274,338)"/>
<path d="M0 0 C4.75481646 0.57634139 7.97048212 2.55068521 12 5 C11.67 6.32 11.34 7.64 11 9 C9.02 9.33 7.04 9.66 5 10 C4.67 7.69 4.34 5.38 4 3 C3.34 3 2.68 3 2 3 C2 2.34 2 1.68 2 1 C1.34 0.67 0.68 0.34 0 0 Z " fill="#D7C7C0" transform="translate(951,269)"/>
<path d="M0 0 C0 0.66 0 1.32 0 2 C2.31 2.33 4.62 2.66 7 3 C7 3.33 7 3.66 7 4 C5.98679687 4.19335938 4.97359375 4.38671875 3.9296875 4.5859375 C2.57808432 4.84874923 1.22652408 5.11178183 -0.125 5.375 C-0.79015625 5.50132812 -1.4553125 5.62765625 -2.140625 5.7578125 C-6.218661 6.5574274 -10.08853085 7.59869485 -14 9 C-11.64722731 6.27573689 -9.37503669 5.1858237 -6 4 C-6.66 3.34 -7.32 2.68 -8 2 C-4.91190305 0.23537317 -3.76687864 0 0 0 Z " fill="#D2C2BC" transform="translate(852,251)"/>
<path d="M0 0 C0 0.33 0 0.66 0 1 C-1.93552734 1.09087891 -1.93552734 1.09087891 -3.91015625 1.18359375 C-5.62761255 1.26805881 -7.34506002 1.35270377 -9.0625 1.4375 C-9.91005859 1.47681641 -10.75761719 1.51613281 -11.63085938 1.55664062 C-20.76186614 1.70682074 -20.76186614 1.70682074 -29 5 C-32.6875 4.625 -32.6875 4.625 -36 4 C-25.21869011 -1.8184847 -11.85369908 -0.21459141 0 0 Z " fill="#CBB5B3" transform="translate(244,164)"/>
<path d="M0 0 C0.33 0.66 0.66 1.32 1 2 C5.1734802 3.35024359 8.73933592 2.7518819 13 2 C10.44421173 5.12374122 7.76215271 5.77154197 4 7 C1.69833325 8.51553153 1.69833325 8.51553153 0 10 C-1.125 6.6875 -1.125 6.6875 -2 3 C-1.34 2.01 -0.68 1.02 0 0 Z " fill="#D9CAC1" transform="translate(635,279)"/>
<path d="M0 0 C6.77271708 0.17245344 11.72825613 1.62584322 17 6 C17.99 7.485 17.99 7.485 19 9 C18.21625 8.649375 17.4325 8.29875 16.625 7.9375 C15.75875 7.628125 14.8925 7.31875 14 7 C13.01 7.495 13.01 7.495 12 8 C12 8.66 12 9.32 12 10 C11.34 10 10.68 10 10 10 C9.61781233 8.34385343 9.28604898 6.67542976 9 5 C9.33 4.67 9.66 4.34 10 4 C6.7 3.01 3.4 2.02 0 1 C0 0.67 0 0.34 0 0 Z " fill="#CBC0BA" transform="translate(1144,268)"/>
<path d="M0 0 C1.65 0 3.3 0 5 0 C5.6509259 1.24735567 6.29551669 2.49801832 6.9375 3.75 C7.29714844 4.44609375 7.65679687 5.1421875 8.02734375 5.859375 C9.82612995 9.81814945 10.13679978 13.22608216 10.125 17.5625 C10.12757813 18.51253906 10.13015625 19.46257812 10.1328125 20.44140625 C10 23 10 23 9 26 C8.34 26 7.68 26 7 26 C7.165 25.34 7.33 24.68 7.5 24 C8.65840011 17.04959936 8.36573616 12.26723285 5 6 C3.42762428 3.88010059 1.77233616 1.96394007 0 0 Z " fill="#BDB1AD" transform="translate(482,285)"/>
<path d="M0 0 C0.66 0.33 1.32 0.66 2 1 C-0.5303354 3.78765765 -3.39339801 5.67463495 -6.5625 7.6875 C-8.01849609 8.62142578 -8.01849609 8.62142578 -9.50390625 9.57421875 C-12 11 -12 11 -14 11 C-14 11.66 -14 12.32 -14 13 C-15.65 13.66 -17.3 14.32 -19 15 C-15.74251939 10.34045944 -11.95869085 7.69162696 -7.25 4.6875 C-6.55261719 4.23310547 -5.85523438 3.77871094 -5.13671875 3.31054688 C-3.42931442 2.19956461 -1.71530989 1.09873705 0 0 Z " fill="#C6BAB5" transform="translate(135,174)"/>
<path d="M0 0 C0.66 0.33 1.32 0.66 2 1 C1.4225 1.45890625 0.845 1.9178125 0.25 2.390625 C-0.4925 3.00421875 -1.235 3.6178125 -2 4.25 C-2.7425 4.85328125 -3.485 5.4565625 -4.25 6.078125 C-6.44884733 8.05972212 -6.44884733 8.05972212 -6 12 C-6.639375 12.268125 -7.27875 12.53625 -7.9375 12.8125 C-10.33131686 13.88667752 -10.33131686 13.88667752 -11 17 C-11.66 16.67 -12.32 16.34 -13 16 C-9.76814404 9.14784385 -5.99229199 4.62432459 0 0 Z " fill="#D1CAC1" transform="translate(1186,273)"/>
<path d="M0 0 C-2.80804268 2.96404505 -5.18315774 5.44499019 -9 7 C-9.66 6.01 -10.32 5.02 -11 4 C-8.14317358 -0.28523962 -4.97227354 -1.84158279 0 0 Z " fill="#D3C4BA" transform="translate(1163,282)"/>
<path d="M0 0 C0.33 0 0.66 0 1 0 C1 8 1 8 0 11 C-0.61875 10.67 -1.2375 10.34 -1.875 10 C-6.26211512 8.59612316 -10.43151427 8.84032477 -15 9 C-15 8.67 -15 8.34 -15 8 C-14.24074219 7.87882812 -13.48148438 7.75765625 -12.69921875 7.6328125 C-11.70535156 7.46523438 -10.71148438 7.29765625 -9.6875 7.125 C-8.70136719 6.96257812 -7.71523437 6.80015625 -6.69921875 6.6328125 C-3.79940173 6.11914546 -3.79940173 6.11914546 -1 4 C-0.27617533 1.94074861 -0.27617533 1.94074861 0 0 Z " fill="#ECDACE" transform="translate(1151,314)"/>
<path d="M0 0 C3.33333333 3.33333333 6.66666667 6.66666667 10 10 C9.34 11.32 8.68 12.64 8 14 C7.34 13.67 6.68 13.34 6 13 C6 11.68 6 10.36 6 9 C5.01 8.67 4.02 8.34 3 8 C2.34 7.01 1.68 6.02 1 5 C-0.65 5.33 -2.3 5.66 -4 6 C-2.68 4.02 -1.36 2.04 0 0 Z " fill="#E8D9D2" transform="translate(422,310)"/>
<path d="M0 0 C2.90039305 2.46700099 3.97011276 4.9468802 5.25 8.5 C5.78367187 9.93859375 5.78367187 9.93859375 6.328125 11.40625 C7 14 7 14 6 17 C5.01 17.66 4.02 18.32 3 19 C3.061875 17.865625 3.12375 16.73125 3.1875 15.5625 C3.2103064 11.29770375 2.1485046 7.84834094 0.65625 3.8828125 C0 2 0 2 0 0 Z " fill="#CABBB3" transform="translate(1008,282)"/>
<path d="M0 0 C0.74507812 0.00451172 1.49015625 0.00902344 2.2578125 0.01367188 C4.0885764 0.02540754 5.91929873 0.0433415 7.75 0.0625 C7.75 0.3925 7.75 0.7225 7.75 1.0625 C6.85796875 1.09988281 5.9659375 1.13726562 5.046875 1.17578125 C3.87640625 1.24152344 2.7059375 1.30726563 1.5 1.375 C0.33984375 1.43300781 -0.8203125 1.49101562 -2.015625 1.55078125 C-5.44240522 2.09294092 -6.59135381 2.99975727 -9.25 5.0625 C-13 4.25 -13 4.25 -16.25 3.0625 C-10.81596718 0.15141099 -6.1048566 -0.07010878 0 0 Z " fill="#CFC1BA" transform="translate(856.25,238.9375)"/>
<path d="M0 0 C0.66 0.33 1.32 0.66 2 1 C1.23868729 6.58295988 0.21150246 10.1713614 -4 14 C-4.49940808 7.88225104 -3.24900602 4.97504047 0 0 Z " fill="#C5BCB4" transform="translate(358,260)"/>
<path d="M0 0 C-0.33 0.99 -0.66 1.98 -1 3 C-1.66 2.67 -2.32 2.34 -3 2 C-3.0825 2.61875 -3.165 3.2375 -3.25 3.875 C-4 6 -4 6 -6.0625 7.25 C-7.0215625 7.62125 -7.0215625 7.62125 -8 8 C-8 6.68 -8 5.36 -8 4 C-8.66 3.67 -9.32 3.34 -10 3 C-6.68152292 -0.06320961 -4.44849969 -0.3033068 0 0 Z " fill="#D2C6C1" transform="translate(700,240)"/>
<path d="M0 0 C0.66 -0.33 1.32 -0.66 2 -1 C0.5140084 3.59306496 -1.85014682 6.43569245 -5 10 C-5 9.01 -5 8.02 -5 7 C-5.31669821 4.66435067 -5.64820803 2.3306218 -6 0 C-3 -1 -3 -1 0 0 Z " fill="#DFC9C1" transform="translate(239,219)"/>
<path d="M0 0 C0.99 0.33 1.98 0.66 3 1 C2.38511719 1.94359375 2.38511719 1.94359375 1.7578125 2.90625 C-1.61110785 8.25783639 -3.84740816 12.77600408 -5 19 C-5.33 19 -5.66 19 -6 19 C-5.5547115 13.72684667 -4.91626837 8.98229776 -3 4 C-3.66 3.67 -4.32 3.34 -5 3 C-3.35 3 -1.7 3 0 3 C0 2.01 0 1.02 0 0 Z " fill="#CDBFBA" transform="translate(374,263)"/>
<path d="M0 0 C5.21202675 2.52704327 8.3880132 6.61773359 12 11 C11.67 11.66 11.34 12.32 11 13 C6.58581996 10.40906824 4.65042438 8.82431741 3 4 C2.01 3.34 1.02 2.68 0 2 C0 1.34 0 0.68 0 0 Z " fill="#C9BEB8" transform="translate(884,248)"/>
<path d="M0 0 C1.32 0.66 2.64 1.32 4 2 C4.28571429 9.42857143 4.28571429 9.42857143 2 13 C1.01 13 0.02 13 -1 13 C-0.84402344 12.39671875 -0.68804687 11.7934375 -0.52734375 11.171875 C-0.23537109 9.97304687 -0.23537109 9.97304687 0.0625 8.75 C0.25972656 7.96109375 0.45695313 7.1721875 0.66015625 6.359375 C1.01497267 3.89605178 0.76877544 2.34395868 0 0 Z " fill="#E8D8D1" transform="translate(244,198)"/>
<path d="M0 0 C2.54414039 2.21229599 3.54746847 3.65126671 4 7 C4.47232472 14.29151292 4.47232472 14.29151292 2 18 C1.855625 16.7625 1.71125 15.525 1.5625 14.25 C1.28388159 11.96452146 0.96181779 9.85490762 0.375 7.625 C0 6 0 6 1 4 C0.60061233 1.90178785 0.60061233 1.90178785 0 0 Z " fill="#CFC3BF" transform="translate(1161,304)"/>
<path d="M0 0 C0.83689211 2.88989305 1.08425974 5.37324667 1 8.375 C0.95166768 12.03013157 1.26276592 15.40598385 2 19 C-0.43125231 16.72070096 -1.87050974 14.93202875 -2.3359375 11.58203125 C-2.40177332 7.12494644 -2.26469479 3.92245138 0 0 Z " fill="#C6BBB5" transform="translate(733,293)"/>
<path d="M0 0 C-1.35961348 4.07884045 -3.30291425 4.93816372 -7 7 C-9.875 7.25 -9.875 7.25 -12 7 C-5.36842105 0 -5.36842105 0 0 0 Z " fill="#EAD9D2" transform="translate(230,327)"/>
<path d="M0 0 C0.33 0 0.66 0 1 0 C0.5188509 5.77378925 -1.18467181 9.95859836 -4 15 C-4.66 14.67 -5.32 14.34 -6 14 C-4.02 9.38 -2.04 4.76 0 0 Z " fill="#B9ABA7" transform="translate(97,211)"/>
<path d="M0 0 C1.98 0.99 1.98 0.99 4 2 C4 2.66 4 3.32 4 4 C4.66 4 5.32 4 6 4 C9.62870159 12.261959 9.62870159 12.261959 8 17 C7.67 17 7.34 17 7 17 C7 15.02 7 13.04 7 11 C6.34 11 5.68 11 5 11 C4.80664062 10.45730469 4.61328125 9.91460937 4.4140625 9.35546875 C4.15367187 8.64003906 3.89328125 7.92460937 3.625 7.1875 C3.36976563 6.47980469 3.11453125 5.77210938 2.8515625 5.04296875 C1.9734231 2.75226641 1.9734231 2.75226641 0 0 Z " fill="#C9BAB6" transform="translate(251,180)"/>
<path d="M0 0 C2.88462179 0.62041755 5.22057814 1.53860124 7.8125 2.9375 C11.48446954 4.83204338 14.996992 5.999248 19 7 C19 7.33 19 7.66 19 8 C12.16981515 7.62054529 6.81609264 5.63930943 1 2 C0.67 1.34 0.34 0.68 0 0 Z " fill="#BCACAB" transform="translate(74,319)"/>
<path d="M0 0 C0.99 0.33 1.98 0.66 3 1 C2.34 1 1.68 1 1 1 C0.8453125 1.8971875 0.8453125 1.8971875 0.6875 2.8125 C-0.09824033 5.31258286 -0.96918853 6.37535082 -3 8 C-3.66 8 -4.32 8 -5 8 C-5.66 8.99 -6.32 9.98 -7 11 C-7.33 10.01 -7.66 9.02 -8 8 C-5.36 5.36 -2.72 2.72 0 0 Z " fill="#D0C4BB" transform="translate(521,314)"/>
<path d="M0 0 C0.66 0.33 1.32 0.66 2 1 C-0.40242227 4.17462943 -2.61713276 6.85751741 -6 9 C-6.66 9 -7.32 9 -8 9 C-8 9.66 -8 10.32 -8 11 C-9.32 11.33 -10.64 11.66 -12 12 C-8 8 -4 4 0 0 Z " fill="#C6B1AE" transform="translate(224,248)"/>
<path d="M0 0 C0 0.66 0 1.32 0 2 C-1.65 2.66 -3.3 3.32 -5 4 C-5 4.66 -5 5.32 -5 6 C-7 7.625 -7 7.625 -9 9 C-9 8.01 -9 7.02 -9 6 C-10.32 5.67 -11.64 5.34 -13 5 C-11.21046815 4.16209211 -9.41830305 3.32980604 -7.625 2.5 C-6.62726563 2.0359375 -5.62953125 1.571875 -4.6015625 1.09375 C-2 0 -2 0 0 0 Z " fill="#D1C0BB" transform="translate(171,286)"/>
<path d="M0 0 C0.33 1.32 0.66 2.64 1 4 C-6.75 5.125 -6.75 5.125 -9 4 C-9 3.34 -9 2.68 -9 2 C-8.2575 1.855625 -7.515 1.71125 -6.75 1.5625 C-4.47972261 1.09812508 -2.24240521 0.58136431 0 0 Z " fill="#E0D0C3" transform="translate(1163,277)"/>
<path d="M0 0 C4.29 0 8.58 0 13 0 C13 0.33 13 0.66 13 1 C11.7934375 1.185625 11.7934375 1.185625 10.5625 1.375 C9.716875 1.58125 8.87125 1.7875 8 2 C7.67 2.66 7.34 3.32 7 4 C4.9375 4.625 4.9375 4.625 3 5 C2.87625 4.360625 2.7525 3.72125 2.625 3.0625 C2.315625 2.0415625 2.315625 2.0415625 2 1 C1.34 0.67 0.68 0.34 0 0 Z " fill="#D2BFB8" transform="translate(1291,269)"/>
<path d="M0 0 C0.66 0.33 1.32 0.66 2 1 C2 1.66 2 2.32 2 3 C0.57421875 4.2890625 0.57421875 4.2890625 -1.3125 5.625 C-1.92738281 6.07101563 -2.54226562 6.51703125 -3.17578125 6.9765625 C-5 8 -5 8 -8 8 C-7.8125 6.125 -7.8125 6.125 -7 4 C-4.5625 2.875 -4.5625 2.875 -2 2 C-1.34 1.34 -0.68 0.68 0 0 Z " fill="#EADBD2" transform="translate(209,249)"/>
<path d="M0 0 C2.08193187 2.08193187 2.96575384 3.71979715 4.1875 6.375 C4.55230469 7.14585937 4.91710937 7.91671875 5.29296875 8.7109375 C6.09246446 11.29936008 6.03398316 12.51625209 5 15 C4.01 15.495 4.01 15.495 3 16 C2.87625 15.030625 2.7525 14.06125 2.625 13.0625 C2.00136191 8.65184223 1.01253494 4.33522241 0 0 Z " fill="#CDB8B3" transform="translate(1006,315)"/>
<path d="M0 0 C1.59190467 3.18380933 0.28749598 6.28076324 -0.4375 9.625 C-0.58509766 10.33140625 -0.73269531 11.0378125 -0.88476562 11.765625 C-1.25049493 13.51168749 -1.62447121 15.25601884 -2 17 C-2.33 17 -2.66 17 -3 17 C-3.33 13.04 -3.66 9.08 -4 5 C-3.01 4.67 -2.02 4.34 -1 4 C-0.26676204 1.98491642 -0.26676204 1.98491642 0 0 Z " fill="#EBDDD5" transform="translate(1176,286)"/>
<path d="M0 0 C0.33 0 0.66 0 1 0 C1.33 4.29 1.66 8.58 2 13 C1.34 13 0.68 13 0 13 C-0.39036513 11.39950296 -0.76178619 9.79437629 -1.125 8.1875 C-1.33382813 7.29417969 -1.54265625 6.40085937 -1.7578125 5.48046875 C-2 3 -2 3 0 0 Z " fill="#E4D9D3" transform="translate(1061,283)"/>
<path d="M0 0 C0 0.99 0 1.98 0 3 C-2.07309734 4.11058786 -3.88618411 4.97398494 -6.1875 5.5 C-6.785625 5.665 -7.38375 5.83 -8 6 C-8.33 6.66 -8.66 7.32 -9 8 C-9.99 7.67 -10.98 7.34 -12 7 C-9.23065799 3.92295332 -6.95955391 2.25038545 -3 1 C-2.34 1 -1.68 1 -1 1 C-0.67 0.67 -0.34 0.34 0 0 Z " fill="#D4C8C0" transform="translate(123,186)"/>
<path d="M0 0 C0.66 0.33 1.32 0.66 2 1 C1.34 1.66 0.68 2.32 0 3 C-1.03842565 5.31648799 -2.0421975 7.64903024 -3 10 C-3.99 10 -4.98 10 -6 10 C-6 6.41087588 -5.33563446 5.89142971 -3 3.3125 C-2.443125 2.68988281 -1.88625 2.06726563 -1.3125 1.42578125 C-0.879375 0.95527344 -0.44625 0.48476563 0 0 Z " fill="#D4C7C0" transform="translate(924,274)"/>
<path d="M0 0 C0.69480469 0.14308594 1.38960937 0.28617187 2.10546875 0.43359375 C5.16693345 1.03266579 8.23455833 1.55514698 11.3125 2.0625 C12.38113281 2.23910156 13.44976563 2.41570312 14.55078125 2.59765625 C15.35902344 2.73042969 16.16726563 2.86320312 17 3 C17 3.33 17 3.66 17 4 C14.03 4 11.06 4 8 4 C8 4.66 8 5.32 8 6 C7.01 5.67 6.02 5.34 5 5 C5.33 4.34 5.66 3.68 6 3 C4.02 2.34 2.04 1.68 0 1 C0 0.67 0 0.34 0 0 Z " fill="#F1DED5" transform="translate(527,319)"/>
<path d="M0 0 C1.60495567 0.11442461 3.20898119 0.24194694 4.8125 0.375 C5.70582031 0.44460938 6.59914063 0.51421875 7.51953125 0.5859375 C10 1 10 1 13 3 C12.67 3.66 12.34 4.32 12 5 C9.15449988 4.33989524 6.47674001 3.48275034 3.75 2.4375 C3.04359375 2.16808594 2.3371875 1.89867187 1.609375 1.62109375 C1.07828125 1.41613281 0.5471875 1.21117187 0 1 C0 0.67 0 0.34 0 0 Z " fill="#D5CAC5" transform="translate(1082,308)"/>
<path d="M0 0 C7.625 0.875 7.625 0.875 11 2 C11 2.99 11 3.98 11 5 C10.01 5.33 9.02 5.66 8 6 C5.5 4.1875 5.5 4.1875 3 2 C2.01 1.34 1.02 0.68 0 0 Z " fill="#D3C5BF" transform="translate(546,283)"/>
<path d="M0 0 C2.46800047 1.15173355 4.04783565 2.04783565 6 4 C5.625 6.625 5.625 6.625 5 9 C3.68 8.67 2.36 8.34 1 8 C1.20625 7.236875 1.4125 6.47375 1.625 5.6875 C2.33391203 2.78114056 2.33391203 2.78114056 0 0 Z " fill="#D4C4C1" transform="translate(1224,275)"/>
<path d="M0 0 C0 3 0 3 -1.96875 5.26171875 C-2.8040625 6.06222656 -3.639375 6.86273438 -4.5 7.6875 C-5.3353125 8.49574219 -6.170625 9.30398437 -7.03125 10.13671875 C-7.6809375 10.75160156 -8.330625 11.36648437 -9 12 C-9.66 11.67 -10.32 11.34 -11 11 C-7.6381774 6.74828319 -4.25171681 3.3618226 0 0 Z " fill="#DACAC5" transform="translate(229,232)"/>
<path d="M0 0 C2 1 2 1 3.0625 3.6875 C3.94085113 6.79100732 4.54426315 9.80984205 5 13 C0.17970402 9.14376321 0.17970402 9.14376321 -0.33203125 5.88671875 C-0.3145776 3.92143786 -0.16596091 1.95833873 0 0 Z " fill="#CDBFB9" transform="translate(65,302)"/>
<path d="M0 0 C2.97 0.495 2.97 0.495 6 1 C5.67 1.66 5.34 2.32 5 3 C4.34 3 3.68 3 3 3 C2.67 3.66 2.34 4.32 2 5 C1.01 5.66 0.02 6.32 -1 7 C-1.66 6.34 -2.32 5.68 -3 5 C-2.34 5 -1.68 5 -1 5 C-0.67 3.35 -0.34 1.7 0 0 Z " fill="#DCCAC4" transform="translate(1189,284)"/>
<path d="M0 0 C0.33 0 0.66 0 1 0 C1.144375 1.11375 1.28875 2.2275 1.4375 3.375 C1.78372035 6.82142047 1.78372035 6.82142047 3 9 C2.91255632 10.87862875 2.75824458 12.75455181 2.5625 14.625 C2.40974609 16.12933594 2.40974609 16.12933594 2.25390625 17.6640625 C2.17011719 18.43492187 2.08632813 19.20578125 2 20 C1.67 20 1.34 20 1 20 C0.11978631 13.28837062 -0.11381955 6.76594019 0 0 Z " fill="#D1BEB9" transform="translate(976,261)"/>
<path d="M0 0 C-1.98 2.31 -3.96 4.62 -6 7 C-6.99 6.67 -7.98 6.34 -9 6 C-8.67 5.34 -8.34 4.68 -8 4 C-7.34 4 -6.68 4 -6 4 C-6 2.68 -6 1.36 -6 0 C-2.25 -1.125 -2.25 -1.125 0 0 Z " fill="#EED8D3" transform="translate(221,241)"/>
<path d="M0 0 C0.33 0.99 0.66 1.98 1 3 C1.66 3.33 2.32 3.66 3 4 C2.01 4 1.02 4 0 4 C0 4.66 0 5.32 0 6 C-0.804375 6.12375 -1.60875 6.2475 -2.4375 6.375 C-3.7059375 6.684375 -3.7059375 6.684375 -5 7 C-5.33 7.66 -5.66 8.32 -6 9 C-6.33 8.34 -6.66 7.68 -7 7 C-6.34 6.34 -5.68 5.68 -5 5 C-4.34 4.01 -3.68 3.02 -3 2 C-2.34 2 -1.68 2 -1 2 C-0.67 1.34 -0.34 0.68 0 0 Z " fill="#E3D6CF" transform="translate(700,240)"/>
<path d="M0 0 C0.90064221 2.5217982 1.19407719 3.57303018 0.0625 6.0625 C-0.288125 6.701875 -0.63875 7.34125 -1 8 C-1 8.99 -1 9.98 -1 11 C-2.32 11.33 -3.64 11.66 -5 12 C-3.68938409 7.76570244 -2.05643741 3.92592596 0 0 Z " fill="#D0C9C1" transform="translate(1257,339)"/>
<path d="M0 0 C0 3.57322755 -0.53341215 4.48587619 -3 7 C-5.48046875 7.609375 -5.48046875 7.609375 -8.1875 7.75 C-9.08855469 7.80671875 -9.98960938 7.8634375 -10.91796875 7.921875 C-11.60503906 7.94765625 -12.29210938 7.9734375 -13 8 C-10.65848007 6.82165412 -8.31091141 5.67655025 -5.9375 4.5625 C-3.41035794 3.2182755 -1.83620604 2.14224039 0 0 Z " fill="#EAD9D1" transform="translate(1102,325)"/>
<path d="M0 0 C0.66 0 1.32 0 2 0 C1.49701212 4.40114397 -0.08772731 6.71195019 -3 10 C-3.66 9.67 -4.32 9.34 -5 9 C-4.34 8.34 -3.68 7.68 -3 7 C-1.96157435 4.68351201 -0.9578025 2.35096976 0 0 Z " fill="#D1C2BD" transform="translate(1105,320)"/>
<path d="M0 0 C1.15518918 0.90484792 2.29885406 1.8244206 3.4375 2.75 C4.07558594 3.26046875 4.71367188 3.7709375 5.37109375 4.296875 C7.18810554 6.19667629 7.60423197 7.43586908 8 10 C7.01 10.495 7.01 10.495 6 11 C5.7525 10.195625 5.505 9.39125 5.25 8.5625 C4.27761141 5.828919 4.27761141 5.828919 1.875 5.1875 C1.25625 5.125625 0.6375 5.06375 0 5 C0 3.35 0 1.7 0 0 Z " fill="#D0C5C1" transform="translate(767,315)"/>
<path d="M0 0 C2.95409701 1.37154504 5.44008376 2.98863724 8 5 C7.67 5.66 7.34 6.32 7 7 C5.68 6.34 4.36 5.68 3 5 C2.67 5.66 2.34 6.32 2 7 C2 6.34 2 5.68 2 5 C1.34 5 0.68 5 0 5 C0 3.35 0 1.7 0 0 Z " fill="#D0BEB7" transform="translate(735,313)"/>
<path d="M0 0 C1.32 0.99 2.64 1.98 4 3 C4.33 2.34 4.66 1.68 5 1 C5.66 1.33 6.32 1.66 7 2 C6.34 3.98 5.68 5.96 5 8 C4.01 8 3.02 8 2 8 C1.34 5.36 0.68 2.72 0 0 Z " fill="#C3B3AD" transform="translate(1016,303)"/>
<path d="M0 0 C0 0.99 0 1.98 0 3 C-2.53184488 5.35723489 -3.47190093 6 -7 6 C-8.33981486 6.3062434 -9.67511887 6.63451555 -11 7 C-9.33784732 5.66104368 -7.67036393 4.32869858 -6 3 C-5.278125 2.4225 -4.55625 1.845 -3.8125 1.25 C-2 0 -2 0 0 0 Z " fill="#D0C0BB" transform="translate(197,271)"/>
<path d="M0 0 C0.66 0 1.32 0 2 0 C3.3271261 3.9813783 3.06915913 7.85045227 3 12 C2.34 12 1.68 12 1 12 C0.83211627 10.37512529 0.66573213 8.75009558 0.5 7.125 C0.4071875 6.22007812 0.314375 5.31515625 0.21875 4.3828125 C0 2 0 2 0 0 Z " fill="#EEDAD1" transform="translate(274,190)"/>
<path d="M0 0 C0.66 0.33 1.32 0.66 2 1 C1.01 1.33 0.02 1.66 -1 2 C-0.67 3.32 -0.34 4.64 0 6 C-0.99 6.66 -1.98 7.32 -3 8 C-3.66 6.35 -4.32 4.7 -5 3 C-2.625 1.4375 -2.625 1.4375 0 0 Z " fill="#D4C7C0" transform="translate(460,270)"/>
<path d="M0 0 C1.28222189 3.03070628 0.98589446 4.03596914 -0.25 7.1875 C-2 10 -2 10 -5 11 C-3.77472971 6.94718288 -2.30119506 3.55639236 0 0 Z " fill="#ECDED8" transform="translate(82,261)"/>
<path d="M0 0 C0 0.99 0 1.98 0 3 C-0.61875 3.2475 -1.2375 3.495 -1.875 3.75 C-4.35068687 5.20628639 -4.95125002 6.37812506 -6 9 C-6.99 9 -7.98 9 -9 9 C-7.87895467 7.68412059 -6.75303035 6.37239647 -5.625 5.0625 C-4.99851562 4.33160156 -4.37203125 3.60070312 -3.7265625 2.84765625 C-2 1 -2 1 0 0 Z " fill="#B9AFA9" transform="translate(368,249)"/>
<path d="M0 0 C2.64 0 5.28 0 8 0 C7.01 0.66 6.02 1.32 5 2 C6.32 3.32 7.64 4.64 9 6 C5.9168649 4.80100302 2.93720508 3.52299523 0 2 C0 1.34 0 0.68 0 0 Z " fill="#C7B3B2" transform="translate(218,175)"/>
<path d="M0 0 C5.67355671 0.61726196 11.33861055 1.27945952 17 2 C17 2.33 17 2.66 17 3 C15.20991533 3.22151549 13.41781838 3.42682213 11.625 3.625 C10.62726563 3.74101562 9.62953125 3.85703125 8.6015625 3.9765625 C7.74304688 3.98429688 6.88453125 3.99203125 6 4 C5.34 3.34 4.68 2.68 4 2 C2.68252676 1.30251417 1.35085807 0.63040043 0 0 Z " fill="#CBBFB9" transform="translate(190,166)"/>
<path d="M0 0 C0.99 0.33 1.98 0.66 3 1 C3 2.65 3 4.3 3 6 C-0.65316671 4.75023244 -1.78065836 4.32901247 -4 1 C-2.68 1.33 -1.36 1.66 0 2 C0 1.34 0 0.68 0 0 Z " fill="#D0C2BE" transform="translate(828,322)"/>
<path d="M0 0 C3.67033927 3.27708863 5.69281189 6.71522208 8 11 C4.71573897 9.94434467 3.42848444 8.38339648 1.75 5.5 C0 2 0 2 0 0 Z " fill="#B6ABA6" transform="translate(355,308)"/>
<path d="M0 0 C0.66 0.33 1.32 0.66 2 1 C1.46930939 4.82097239 0.50298434 7.06171403 -2 10 C-2.6875 8.375 -2.6875 8.375 -3 6 C-1.5625 2.75 -1.5625 2.75 0 0 Z " fill="#E8D8D1" transform="translate(1278,295)"/>
<path d="M0 0 C0.66 0.99 1.32 1.98 2 3 C1.01 2.67 0.02 2.34 -1 2 C-0.67 1.34 -0.34 0.68 0 0 Z M-2 3 C-1.67 3.99 -1.34 4.98 -1 6 C-0.34 6.33 0.32 6.66 1 7 C-0.65 8.32 -2.3 9.64 -4 11 C-3.34 8.36 -2.68 5.72 -2 3 Z " fill="#E7DBCD" transform="translate(1285,282)"/>
<path d="M0 0 C2.97 0.33 5.94 0.66 9 1 C6.37801226 3.15377564 4.35595828 4.40072174 1 5 C1 4.34 1 3.68 1 3 C0.34 2.67 -0.32 2.34 -1 2 C-0.67 1.34 -0.34 0.68 0 0 Z " fill="#E9D6CD" transform="translate(460,281)"/>
<path d="M0 0 C2.5 1.3125 2.5 1.3125 5 3 C5 3.99 5 4.98 5 6 C2.36 5.01 -0.28 4.02 -3 3 C-2.01 2.67 -1.02 2.34 0 2 C0 1.34 0 0.68 0 0 Z " fill="#E7D9D2" transform="translate(1221,274)"/>
<path d="M0 0 C-1.65 1.65 -3.3 3.3 -5 5 C-5.99 4.67 -6.98 4.34 -8 4 C-7.25 2.0625 -7.25 2.0625 -6 0 C-3.40292416 -1.05506206 -2.5386068 -1.2693034 0 0 Z " fill="#E9D6D2" transform="translate(428,258)"/>
<path d="M0 0 C1.4540625 0.0309375 1.4540625 0.0309375 2.9375 0.0625 C1.9475 0.5575 1.9475 0.5575 0.9375 1.0625 C1.2675 2.0525 1.5975 3.0425 1.9375 4.0625 C0.2875 4.3925 -1.3625 4.7225 -3.0625 5.0625 C-3.625 3.125 -3.625 3.125 -4.0625 1.0625 C-3.0625 0.0625 -3.0625 0.0625 0 0 Z " fill="#D6C8C1" transform="translate(380.0625,242.9375)"/>
<path d="M0 0 C0.66 0 1.32 0 2 0 C1.46930939 3.82097239 0.50298434 6.06171403 -2 9 C-2.33 7.02 -2.66 5.04 -3 3 C-2.01 2.67 -1.02 2.34 0 2 C0 1.34 0 0.68 0 0 Z " fill="#CABBB3" transform="translate(1014,351)"/>
<path d="M0 0 C1.5 1.3125 1.5 1.3125 3 3 C3 3.99 3 4.98 3 6 C3.66 6.33 4.32 6.66 5 7 C4.34 7.66 3.68 8.32 3 9 C3 8.34 3 7.68 3 7 C2.34 7 1.68 7 1 7 C-0.0625 4.625 -0.0625 4.625 -1 2 C-0.67 1.34 -0.34 0.68 0 0 Z " fill="#E7DBCD" transform="translate(1258,311)"/>
<path d="M0 0 C0.66 0.33 1.32 0.66 2 1 C2.33 1.99 2.66 2.98 3 4 C3.33 4.66 3.66 5.32 4 6 C2.68 6.33 1.36 6.66 0 7 C-0.66 5.02 -1.32 3.04 -2 1 C-1.34 0.67 -0.68 0.34 0 0 Z " fill="#D4C7BF" transform="translate(995,285)"/>
<path d="M0 0 C0 4.24645065 -1.81750806 6.38524772 -4 10 C-4.66 10 -5.32 10 -6 10 C-4.6302836 6.00499382 -2.74277578 3.19990508 0 0 Z " fill="#CBBFB9" transform="translate(725,278)"/>
<path d="M0 0 C-1.10699901 3.21029714 -2.01603825 4.00968977 -5 5.8125 C-5.99 6.204375 -6.98 6.59625 -8 7 C-8.66 6.67 -9.32 6.34 -10 6 C-8.71283353 4.99421411 -7.42011342 3.99553202 -6.125 3 C-5.40570313 2.443125 -4.68640625 1.88625 -3.9453125 1.3125 C-2 0 -2 0 0 0 Z " fill="#CFBCB9" transform="translate(207,264)"/>
<path d="M0 0 C0.99 0 1.98 0 3 0 C3.33 0.99 3.66 1.98 4 3 C3.67 3.66 3.34 4.32 3 5 C1.35 5 -0.3 5 -2 5 C-1.34 3.35 -0.68 1.7 0 0 Z " fill="#DECBBE" transform="translate(156,339)"/>
<path d="M0 0 C1 2 1 2 0.44140625 3.9453125 C0.15136719 4.66460937 -0.13867188 5.38390625 -0.4375 6.125 C-0.72496094 6.84945313 -1.01242188 7.57390625 -1.30859375 8.3203125 C-1.53675781 8.87460937 -1.76492187 9.42890625 -2 10 C-3.125 8.3125 -3.125 8.3125 -4 6 C-3.25 3.3125 -3.25 3.3125 -2 1 C-1.34 0.67 -0.68 0.34 0 0 Z " fill="#D7CDC4" transform="translate(78,271)"/>
<path d="M0 0 C4.3177458 0.50797009 8.03302114 1.19682779 12 3 C12 3.33 12 3.66 12 4 C10.56138706 3.91253716 9.12402492 3.80434652 7.6875 3.6875 C6.88699219 3.62949219 6.08648437 3.57148438 5.26171875 3.51171875 C2.63727666 2.91793306 1.69179328 2.04219706 0 0 Z " fill="#EBD8D3" transform="translate(457,329)"/>
<path d="M0 0 C0.66 0.33 1.32 0.66 2 1 C-1.61328125 5.6875 -1.61328125 5.6875 -3 7 C-3.99 7 -4.98 7 -6 7 C-4.60667426 3.63279613 -3.0210714 2.0140476 0 0 Z " fill="#C3B9B6" transform="translate(420,311)"/>
<path d="M0 0 C0.66 0.33 1.32 0.66 2 1 C1.01 2.485 1.01 2.485 0 4 C0.33 4.66 0.66 5.32 1 6 C-3.875 4.25 -3.875 4.25 -5 2 C-2.625 0.9375 -2.625 0.9375 0 0 Z " fill="#DACEC3" transform="translate(1188,325)"/>
<path d="M0 0 C0.99 0.66 1.98 1.32 3 2 C2.6875 3.875 2.6875 3.875 2 6 C1.01 6.66 0.02 7.32 -1 8 C-1.33 7.01 -1.66 6.02 -2 5 C-1.01 4.34 -0.02 3.68 1 3 C0.67 2.01 0.34 1.02 0 0 Z " fill="#D0C7C0" transform="translate(1228,320)"/>
<path d="M0 0 C0.45375 0.495 0.9075 0.99 1.375 1.5 C2.87635519 3.22609337 2.87635519 3.22609337 5 3 C5 4.65 5 6.3 5 8 C2 7 2 7 0.8125 5.125 C0 3 0 3 0 0 Z " fill="#E9D6CE" transform="translate(1008,317)"/>
<path d="M0 0 C0.33 0 0.66 0 1 0 C1 3.63 1 7.26 1 11 C0.01 11.33 -0.98 11.66 -2 12 C-1.34 8.04 -0.68 4.08 0 0 Z " fill="#EEE0D8" transform="translate(263,270)"/>
<path d="M0 0 C3.78786597 0.5260925 6.17152224 1.38103911 9 4 C9 4.66 9 5.32 9 6 C5.56404834 4.47291037 2.88087546 2.40072955 0 0 Z " fill="#C9C0B9" transform="translate(660,270)"/>
<path d="M0 0 C2.475 0.99 2.475 0.99 5 2 C3.625 4 3.625 4 2 6 C1.34 6 0.68 6 0 6 C0 4.02 0 2.04 0 0 Z " fill="#BEACA1" transform="translate(590,270)"/>
<path d="M0 0 C0.93423645 3.01031744 1.04449911 3.86650268 0 7 C-1.32 6.34 -2.64 5.68 -4 5 C-2.68 3.35 -1.36 1.7 0 0 Z " fill="#C6B8B5" transform="translate(76,256)"/>
<path d="M0 0 C0.66 0.99 1.32 1.98 2 3 C1.236875 3.45375 0.47375 3.9075 -0.3125 4.375 C-2.23632814 5.53824492 -4.12941224 6.7529415 -6 8 C-4.55746343 4.63408134 -2.66735273 2.48952921 0 0 Z " fill="#F4E0DA" transform="translate(230,229)"/>
</svg>
